<?xml version="1.0" encoding="UTF-8"?>
<svg width="119px" height="119px" viewBox="0 0 119 119" version="1.1" xmlns="http://www.w3.org/2000/svg" xmlns:xlink="http://www.w3.org/1999/xlink">
    <title>Group 4</title>
    <g id="Page-1" stroke="none" stroke-width="1" fill="none" fill-rule="evenodd">
        <g id="Group-4">
            <rect id="Rectangle" fill-opacity="0" fill="#FFFFFF" x="0" y="0" width="119" height="119"></rect>
            <g id="Group-Copy-3" transform="translate(16.000000, 24.000000)" stroke-linecap="round" stroke-linejoin="round" stroke-width="6.03076923">
                <line x1="0.753846154" y1="0.795726496" x2="0.753846154" y2="56.4965812" id="Line-3" stroke="#186AFF"></line>
                <path d="M0.753846154,56.5384615 C16.1830058,56.5384615 27.3274752,56.5384615 34.1872544,56.5384615 C41.0470335,56.5384615 45.2174137,60.6963973 46.6983951,69.0122688" id="Line-3-Copy" stroke="#186AFF"></path>
                <path d="M0.753846154,0.753846154 C15.4369881,0.753846154 26.0426096,0.753846154 32.5707105,0.753846154 C39.0988114,0.753846154 43.0675489,4.91178191 44.4769231,13.2276534" id="Line-3-Copy-4" stroke="#186AFF"></path>
                <path d="M44.4769231,0.795726496 C56.8569903,0.767806268 66.6039464,0.753846154 73.7177914,0.753846154 C80.8316365,0.753846154 85.1564752,4.91178191 86.6923077,13.2276534" id="Line-3-Copy-5" stroke="#186AFF" transform="translate(65.584615, 6.990750) scale(-1, 1) translate(-65.584615, -6.990750) "></path>
                <line x1="85.1846154" y1="0.794594595" x2="85.9384615" y2="58.8" id="Line-3-Copy-2" stroke="#186AFF" transform="translate(85.938462, 29.400000) scale(-1, 1) translate(-85.938462, -29.400000) "></line>
                <line x1="85.9384615" y1="58.8" x2="54.2769231" y2="58.8" id="Line-3-Copy-3" stroke="#186AFF" transform="translate(70.107692, 58.800000) scale(-1, 1) translate(-70.107692, -58.800000) "></line>
                <path d="M12.8153846,17.3384615 C21.0576272,16.5430382 27.2537117,16.5430382 31.4036379,17.3384615 C34.3353783,18.5971336 35.8012485,20.2954788 35.8012485,22.433497" id="Line" stroke="#14459F"></path>
                <path d="M53.5230769,17.3384615 C61.7653195,16.5430382 67.961404,16.5430382 72.1113302,17.3384615 C75.0430706,18.5971336 76.5089408,20.2954788 76.5089408,22.433497" id="Line-Copy" stroke="#14459F" transform="translate(65.016009, 19.587696) scale(-1, 1) translate(-65.016009, -19.587696) "></path>
                <line x1="44.4769231" y1="23.3692308" x2="44.4769231" y2="35.4307692" id="Line-2" stroke="#14459F"></line>
                <path d="M34.6769231,43.7230769 C37.9262742,47.0583431 41.1929409,48.7259762 44.4769231,48.7259762 C47.7609053,48.7259762 51.0275719,47.0583431 54.2769231,43.7230769" id="Line-2-Copy" stroke="#22D5A7" opacity="0.600000024"></path>
            </g>
        </g>
    </g>
</svg>